<mxfile host="app.diagrams.net" modified="2023-08-25T01:07:15.208Z" agent="Mozilla/5.0 (Windows NT 10.0; Win64; x64) AppleWebKit/537.36 (KHTML, like Gecko) Chrome/116.0.0.0 Safari/537.36" version="21.5.0" etag="3kVEBruPQ58Ce5AsaxPk" type="github">
  <diagram name="PÃ¡gina-1" id="gAvDj3LBbCohPnBVUNbf">
    <mxGraphModel>
      <root>
        <mxCell id="0" />
        <mxCell id="1" parent="0" />
      </root>
    </mxGraphModel>
  </diagram>
</mxfile>
